<?xml version="1.0" encoding="UTF-8"?>
<!-- Tagora Sticker · Bisiklet · 3×3 cm — see sticker-brief.md for specs -->
<svg xmlns="http://www.w3.org/2000/svg" viewBox="0 0 180 180" width="30mm" height="30mm" role="img" aria-labelledby="title">
  <title id="title">Tagora Bisiklet Sticker</title>
  <rect x="0" y="0" width="180" height="180" rx="14" fill="#0F1B3D"/>
  <text x="24" y="26" font-size="18">🚲</text>
  <rect x="20" y="35" width="140" height="105" rx="6" fill="#FFFFFF"/>
  <g transform="translate(30, 45)">
    <rect x="0" y="0" width="22" height="22" fill="#0F1B3D" rx="2"/><rect x="3" y="3" width="16" height="16" fill="#FFFFFF" rx="1"/><rect x="6" y="6" width="10" height="10" fill="#0F1B3D" rx="1"/>
    <rect x="98" y="0" width="22" height="22" fill="#0F1B3D" rx="2"/><rect x="101" y="3" width="16" height="16" fill="#FFFFFF" rx="1"/><rect x="104" y="6" width="10" height="10" fill="#0F1B3D" rx="1"/>
    <rect x="0" y="60" width="22" height="22" fill="#0F1B3D" rx="2"/><rect x="3" y="63" width="16" height="16" fill="#FFFFFF" rx="1"/><rect x="6" y="66" width="10" height="10" fill="#0F1B3D" rx="1"/>
    <g fill="#0F1B3D">
      <rect x="30" y="5" width="4" height="4"/><rect x="45" y="0" width="4" height="4"/><rect x="60" y="10" width="4" height="4"/><rect x="75" y="0" width="4" height="4"/><rect x="90" y="5" width="4" height="4"/>
      <rect x="30" y="18" width="4" height="4"/><rect x="45" y="15" width="4" height="4"/><rect x="60" y="18" width="4" height="4"/><rect x="75" y="15" width="4" height="4"/><rect x="88" y="18" width="4" height="4"/>
      <rect x="0" y="30" width="4" height="4"/><rect x="15" y="35" width="4" height="4"/><rect x="30" y="32" width="4" height="4"/><rect x="45" y="35" width="4" height="4"/><rect x="60" y="30" width="4" height="4"/><rect x="75" y="38" width="4" height="4"/><rect x="90" y="32" width="4" height="4"/><rect x="105" y="35" width="4" height="4"/><rect x="115" y="32" width="4" height="4"/>
      <rect x="0" y="48" width="4" height="4"/><rect x="18" y="45" width="4" height="4"/><rect x="30" y="50" width="4" height="4"/><rect x="48" y="48" width="4" height="4"/><rect x="60" y="45" width="4" height="4"/><rect x="78" y="50" width="4" height="4"/><rect x="90" y="45" width="4" height="4"/><rect x="105" y="50" width="4" height="4"/>
      <rect x="30" y="65" width="4" height="4"/><rect x="45" y="60" width="4" height="4"/><rect x="60" y="65" width="4" height="4"/><rect x="75" y="60" width="4" height="4"/><rect x="90" y="65" width="4" height="4"/><rect x="105" y="60" width="4" height="4"/>
      <rect x="35" y="75" width="4" height="4"/><rect x="50" y="72" width="4" height="4"/><rect x="65" y="75" width="4" height="4"/><rect x="80" y="72" width="4" height="4"/><rect x="95" y="75" width="4" height="4"/><rect x="110" y="72" width="4" height="4"/>
    </g>
  </g>
  <text x="90" y="158" text-anchor="middle" fill="#D4F36A" font-size="10" font-weight="800" font-family="system-ui, sans-serif" letter-spacing="1">SAHİBİNE ULAŞ →</text>
  <text x="90" y="172" text-anchor="middle" fill="#FFFFFF" font-size="7" font-family="ui-monospace, monospace" letter-spacing="0.3" opacity="0.75">tagora.link</text>
</svg>
