<?xml version="1.0" encoding="UTF-8"?>
<svg xmlns="http://www.w3.org/2000/svg" viewBox="0 0 780 500" role="img" aria-label="Visa">
  <title>Visa</title>
  <rect width="780" height="500" rx="60" fill="#1A1F71"/>
  <g fill="#FFFFFF">
    <!-- V -->
    <path d="M232.5 158 L303 342 L370 342 L440 158 L370 158 L328 285 L292 158 Z"/>
    <!-- I -->
    <path d="M455 158 L419 342 L482 342 L518 158 Z"/>
    <!-- S -->
    <path d="M540 165 C575 155 620 155 640 175 L620 220 C610 210 585 202 565 208 C548 213 542 235 565 245 L595 258 C640 275 645 320 615 340 C585 358 540 355 510 340 L530 293 C542 302 570 310 590 302 C605 297 605 280 585 273 L560 262 C520 245 512 215 512 200 C512 185 522 172 540 165 Z"/>
    <!-- A -->
    <path d="M700 158 L620 158 L555 342 L618 342 L628 315 L688 315 L693 342 L750 342 L700 158 Z M643 275 L662 220 L672 275 Z"/>
  </g>
  <!-- Yellow accent stripe under logo -->
  <rect x="60" y="365" width="660" height="14" rx="7" fill="#F7B600"/>
</svg>
