<svg xmlns="http://www.w3.org/2000/svg" viewBox="0 0 1080 1920" width="1080" height="1920">
  <defs>
    <linearGradient id="bg" x1="0" y1="0" x2="1080" y2="1920" gradientUnits="userSpaceOnUse">
      <stop offset="0" stop-color="#0F1B3D"/>
      <stop offset="1" stop-color="#1A2F5C"/>
    </linearGradient>
    <radialGradient id="glow" cx="540" cy="600" r="700" gradientUnits="userSpaceOnUse">
      <stop offset="0" stop-color="#D4F36A" stop-opacity="0.08"/>
      <stop offset="1" stop-color="#D4F36A" stop-opacity="0"/>
    </radialGradient>
    <linearGradient id="screenBg" x1="0" y1="0" x2="0" y2="1152" gradientUnits="userSpaceOnUse">
      <stop offset="0" stop-color="#FAF7F0"/>
      <stop offset="1" stop-color="#F0EBDC"/>
    </linearGradient>
  </defs>

  <rect width="1080" height="1920" fill="url(#bg)"/>
  <rect width="1080" height="1920" fill="url(#glow)"/>

  <text x="540" y="180" text-anchor="middle" font-family="Helvetica, Arial, sans-serif" font-size="72" font-weight="800" fill="#FFFFFF">Stickerlarını yönet</text>
  <text x="540" y="270" text-anchor="middle" font-family="Helvetica, Arial, sans-serif" font-size="52" font-weight="600" fill="#D4F36A">Araç, ev, pet, bagaj...</text>

  <g transform="translate(240, 380)">
    <rect x="10" y="20" width="600" height="1200" rx="80" fill="#000000" opacity="0.4"/>
    <rect x="0" y="0" width="600" height="1200" rx="80" fill="#0A0A18"/>
    <rect x="0" y="0" width="600" height="1200" rx="80" fill="none" stroke="#2A2A3E" stroke-width="4"/>
    <rect x="20" y="24" width="560" height="1152" rx="60" fill="url(#screenBg)"/>
    <rect x="250" y="24" width="100" height="30" rx="15" fill="#000000"/>

    <text x="60" y="90" font-family="Helvetica, Arial, sans-serif" font-size="20" font-weight="600" fill="#0F1B3D">9:41</text>

    <g transform="translate(60, 140)">
      <text x="0" y="40" font-family="Helvetica, Arial, sans-serif" font-size="42" font-weight="800" fill="#0F1B3D">Stickerlarım</text>
      <text x="0" y="80" font-family="Helvetica, Arial, sans-serif" font-size="22" fill="#5A6478">4 aktif sticker</text>
      <g transform="translate(400, 10)">
        <rect x="0" y="0" width="80" height="80" rx="20" fill="#F5B83C"/>
        <text x="40" y="60" text-anchor="middle" font-family="Helvetica, Arial, sans-serif" font-size="52" font-weight="700" fill="#0F1B3D">+</text>
      </g>
    </g>

    <g transform="translate(60, 290)">
      <rect x="0" y="0" width="480" height="140" rx="20" fill="#FFFFFF"/>
      <rect x="0" y="0" width="480" height="140" rx="20" fill="none" stroke="#0F1B3D" stroke-width="2"/>
      <rect x="20" y="20" width="100" height="100" rx="14" fill="#0F1B3D"/>
      <text x="70" y="90" text-anchor="middle" font-family="Helvetica, Arial, sans-serif" font-size="52">🚗</text>
      <text x="140" y="60" font-family="Helvetica, Arial, sans-serif" font-size="28" font-weight="700" fill="#0F1B3D">Aracım</text>
      <text x="140" y="92" font-family="Helvetica, Arial, sans-serif" font-size="19" fill="#5A6478">Ön cam · Aktif</text>
      <g transform="translate(140, 108)">
        <rect x="0" y="0" width="90" height="24" rx="6" fill="#D4F36A"/>
        <text x="45" y="17" text-anchor="middle" font-family="Helvetica, Arial, sans-serif" font-size="13" font-weight="700" fill="#0F1B3D">3 mesaj</text>
      </g>
    </g>

    <g transform="translate(60, 450)">
      <rect x="0" y="0" width="480" height="140" rx="20" fill="#FFFFFF"/>
      <rect x="0" y="0" width="480" height="140" rx="20" fill="none" stroke="#0F1B3D" stroke-width="2"/>
      <rect x="20" y="20" width="100" height="100" rx="14" fill="#F5B83C"/>
      <text x="70" y="90" text-anchor="middle" font-family="Helvetica, Arial, sans-serif" font-size="52">🧸</text>
      <text x="140" y="60" font-family="Helvetica, Arial, sans-serif" font-size="28" font-weight="700" fill="#0F1B3D">Ayışığı</text>
      <text x="140" y="92" font-family="Helvetica, Arial, sans-serif" font-size="19" fill="#5A6478">Kızımın peluşu · Aktif</text>
      <g transform="translate(140, 108)">
        <rect x="0" y="0" width="110" height="24" rx="6" fill="#F5B83C"/>
        <text x="55" y="17" text-anchor="middle" font-family="Helvetica, Arial, sans-serif" font-size="13" font-weight="700" fill="#0F1B3D">Bulundu</text>
      </g>
    </g>

    <g transform="translate(60, 610)">
      <rect x="0" y="0" width="480" height="140" rx="20" fill="#FFFFFF"/>
      <rect x="0" y="0" width="480" height="140" rx="20" fill="none" stroke="#0F1B3D" stroke-width="2"/>
      <rect x="20" y="20" width="100" height="100" rx="14" fill="#D4F36A"/>
      <text x="70" y="90" text-anchor="middle" font-family="Helvetica, Arial, sans-serif" font-size="52">🧳</text>
      <text x="140" y="60" font-family="Helvetica, Arial, sans-serif" font-size="28" font-weight="700" fill="#0F1B3D">Seyahat çantası</text>
      <text x="140" y="92" font-family="Helvetica, Arial, sans-serif" font-size="19" fill="#5A6478">Havalimanı · Aktif</text>
    </g>

    <g transform="translate(60, 770)">
      <rect x="0" y="0" width="480" height="140" rx="20" fill="#FFFFFF"/>
      <rect x="0" y="0" width="480" height="140" rx="20" fill="none" stroke="#0F1B3D" stroke-width="2"/>
      <rect x="20" y="20" width="100" height="100" rx="14" fill="#0F1B3D"/>
      <text x="70" y="90" text-anchor="middle" font-family="Helvetica, Arial, sans-serif" font-size="52">🐕</text>
      <text x="140" y="60" font-family="Helvetica, Arial, sans-serif" font-size="28" font-weight="700" fill="#0F1B3D">Boncuk</text>
      <text x="140" y="92" font-family="Helvetica, Arial, sans-serif" font-size="19" fill="#5A6478">Tasma etiketi · Aktif</text>
    </g>

    <g transform="translate(20, 1050)">
      <rect x="0" y="0" width="560" height="120" fill="#0F1B3D"/>
      <g transform="translate(50, 30)">
        <rect x="0" y="0" width="60" height="60" rx="14" fill="#F5B83C"/>
        <text x="30" y="42" text-anchor="middle" font-family="Helvetica, Arial, sans-serif" font-size="30">📦</text>
      </g>
      <g transform="translate(180, 30)">
        <circle cx="30" cy="30" r="30" fill="#FFFFFF" opacity="0.15"/>
        <text x="30" y="42" text-anchor="middle" font-family="Helvetica, Arial, sans-serif" font-size="26">💬</text>
      </g>
      <g transform="translate(310, 30)">
        <circle cx="30" cy="30" r="30" fill="#FFFFFF" opacity="0.15"/>
        <text x="30" y="42" text-anchor="middle" font-family="Helvetica, Arial, sans-serif" font-size="26">📷</text>
      </g>
      <g transform="translate(440, 30)">
        <circle cx="30" cy="30" r="30" fill="#FFFFFF" opacity="0.15"/>
        <text x="30" y="42" text-anchor="middle" font-family="Helvetica, Arial, sans-serif" font-size="26">👤</text>
      </g>
    </g>
  </g>

  <text x="540" y="1720" text-anchor="middle" font-family="Helvetica, Arial, sans-serif" font-size="42" font-weight="700" fill="#FFFFFF">Sınırsız sticker</text>
  <text x="540" y="1780" text-anchor="middle" font-family="Helvetica, Arial, sans-serif" font-size="30" font-weight="500" fill="#B8C0D0">Hayatındaki her önemli eşya için</text>
</svg>
