<svg xmlns="http://www.w3.org/2000/svg" viewBox="0 0 1080 1920" width="1080" height="1920">
  <defs>
    <linearGradient id="bg" x1="0" y1="0" x2="1080" y2="1920" gradientUnits="userSpaceOnUse">
      <stop offset="0" stop-color="#0F1B3D"/>
      <stop offset="1" stop-color="#1A2F5C"/>
    </linearGradient>
    <radialGradient id="glow" cx="540" cy="700" r="700" gradientUnits="userSpaceOnUse">
      <stop offset="0" stop-color="#D4F36A" stop-opacity="0.1"/>
      <stop offset="1" stop-color="#D4F36A" stop-opacity="0"/>
    </radialGradient>
    <linearGradient id="camBg" x1="0" y1="0" x2="0" y2="1152" gradientUnits="userSpaceOnUse">
      <stop offset="0" stop-color="#1a2f5c"/>
      <stop offset="1" stop-color="#0F1B3D"/>
    </linearGradient>
  </defs>

  <rect width="1080" height="1920" fill="url(#bg)"/>
  <rect width="1080" height="1920" fill="url(#glow)"/>

  <text x="540" y="180" text-anchor="middle" font-family="Helvetica, Arial, sans-serif" font-size="72" font-weight="800" fill="#FFFFFF">QR ile bağlan</text>
  <text x="540" y="270" text-anchor="middle" font-family="Helvetica, Arial, sans-serif" font-size="52" font-weight="600" fill="#D4F36A">Sahibiyle anonim iletişim</text>

  <g transform="translate(240, 380)">
    <rect x="10" y="20" width="600" height="1200" rx="80" fill="#000000" opacity="0.4"/>
    <rect x="0" y="0" width="600" height="1200" rx="80" fill="#0A0A18"/>
    <rect x="0" y="0" width="600" height="1200" rx="80" fill="none" stroke="#2A2A3E" stroke-width="4"/>
    <rect x="20" y="24" width="560" height="1152" rx="60" fill="url(#camBg)"/>
    <rect x="250" y="24" width="100" height="30" rx="15" fill="#000000"/>

    <text x="60" y="90" font-family="Helvetica, Arial, sans-serif" font-size="20" font-weight="600" fill="#FFFFFF">9:41</text>

    <g transform="translate(60, 130)">
      <text x="0" y="40" font-family="Helvetica, Arial, sans-serif" font-size="36" font-weight="800" fill="#FFFFFF">QR Tara</text>
      <text x="0" y="80" font-family="Helvetica, Arial, sans-serif" font-size="20" fill="#B8C0D0">Tagora sticker'ı çerçeveye al</text>
    </g>

    <g transform="translate(70, 300)">
      <rect x="0" y="0" width="460" height="600" rx="24" fill="#000000"/>

      <g transform="translate(105, 145)">
        <rect x="-20" y="-20" width="290" height="290" rx="20" fill="#FAF7F0"/>

        <g transform="translate(10, 10)">
          <rect x="0" y="0" width="30" height="30" rx="8" fill="#F5B83C"/>
          <text x="15" y="22" text-anchor="middle" font-family="Helvetica, Arial, sans-serif" font-size="20" font-weight="700" fill="#0F1B3D">T</text>
          <text x="42" y="22" font-family="Helvetica, Arial, sans-serif" font-size="16" font-weight="800" fill="#0F1B3D">Tagora</text>
        </g>

        <g transform="translate(30, 50)">
          <rect x="0" y="0" width="190" height="190" fill="#0F1B3D"/>
          <g transform="translate(10, 10)">
            <rect x="0" y="0" width="40" height="40" fill="#FAF7F0"/>
            <rect x="5" y="5" width="30" height="30" fill="#0F1B3D"/>
            <rect x="12" y="12" width="16" height="16" fill="#FAF7F0"/>
            <rect x="130" y="0" width="40" height="40" fill="#FAF7F0"/>
            <rect x="135" y="5" width="30" height="30" fill="#0F1B3D"/>
            <rect x="142" y="12" width="16" height="16" fill="#FAF7F0"/>
            <rect x="0" y="130" width="40" height="40" fill="#FAF7F0"/>
            <rect x="5" y="135" width="30" height="30" fill="#0F1B3D"/>
            <rect x="12" y="142" width="16" height="16" fill="#FAF7F0"/>
            <rect x="50" y="0" width="8" height="8" fill="#FAF7F0"/>
            <rect x="66" y="0" width="8" height="8" fill="#FAF7F0"/>
            <rect x="82" y="0" width="8" height="8" fill="#FAF7F0"/>
            <rect x="98" y="0" width="8" height="8" fill="#FAF7F0"/>
            <rect x="114" y="0" width="8" height="8" fill="#FAF7F0"/>
            <rect x="50" y="16" width="8" height="8" fill="#FAF7F0"/>
            <rect x="82" y="16" width="8" height="8" fill="#FAF7F0"/>
            <rect x="114" y="16" width="8" height="8" fill="#FAF7F0"/>
            <rect x="58" y="32" width="8" height="8" fill="#FAF7F0"/>
            <rect x="98" y="32" width="8" height="8" fill="#FAF7F0"/>
            <rect x="0" y="50" width="8" height="8" fill="#FAF7F0"/>
            <rect x="16" y="50" width="8" height="8" fill="#FAF7F0"/>
            <rect x="34" y="50" width="8" height="8" fill="#FAF7F0"/>
            <rect x="50" y="50" width="8" height="8" fill="#FAF7F0"/>
            <rect x="82" y="50" width="8" height="8" fill="#FAF7F0"/>
            <rect x="98" y="50" width="8" height="8" fill="#FAF7F0"/>
            <rect x="130" y="50" width="8" height="8" fill="#FAF7F0"/>
            <rect x="150" y="50" width="8" height="8" fill="#FAF7F0"/>
            <rect x="8" y="66" width="8" height="8" fill="#FAF7F0"/>
            <rect x="42" y="66" width="8" height="8" fill="#FAF7F0"/>
            <rect x="66" y="66" width="8" height="8" fill="#FAF7F0"/>
            <rect x="82" y="66" width="8" height="8" fill="#FAF7F0"/>
            <rect x="114" y="66" width="8" height="8" fill="#FAF7F0"/>
            <rect x="146" y="66" width="8" height="8" fill="#FAF7F0"/>
            <rect x="16" y="82" width="8" height="8" fill="#FAF7F0"/>
            <rect x="50" y="82" width="8" height="8" fill="#FAF7F0"/>
            <rect x="98" y="82" width="8" height="8" fill="#FAF7F0"/>
            <rect x="130" y="82" width="8" height="8" fill="#FAF7F0"/>
            <rect x="150" y="82" width="8" height="8" fill="#FAF7F0"/>
            <rect x="34" y="98" width="8" height="8" fill="#FAF7F0"/>
            <rect x="82" y="98" width="8" height="8" fill="#FAF7F0"/>
            <rect x="114" y="98" width="8" height="8" fill="#FAF7F0"/>
            <rect x="150" y="98" width="8" height="8" fill="#FAF7F0"/>
            <rect x="0" y="114" width="8" height="8" fill="#FAF7F0"/>
            <rect x="16" y="114" width="8" height="8" fill="#FAF7F0"/>
            <rect x="34" y="114" width="8" height="8" fill="#FAF7F0"/>
            <rect x="66" y="114" width="8" height="8" fill="#FAF7F0"/>
            <rect x="98" y="114" width="8" height="8" fill="#FAF7F0"/>
            <rect x="130" y="114" width="8" height="8" fill="#FAF7F0"/>
            <rect x="150" y="114" width="8" height="8" fill="#FAF7F0"/>
            <rect x="50" y="130" width="8" height="8" fill="#FAF7F0"/>
            <rect x="82" y="130" width="8" height="8" fill="#FAF7F0"/>
            <rect x="114" y="130" width="8" height="8" fill="#FAF7F0"/>
            <rect x="146" y="130" width="8" height="8" fill="#FAF7F0"/>
            <rect x="66" y="146" width="8" height="8" fill="#FAF7F0"/>
            <rect x="98" y="146" width="8" height="8" fill="#FAF7F0"/>
            <rect x="130" y="146" width="8" height="8" fill="#FAF7F0"/>
            <rect x="150" y="146" width="8" height="8" fill="#FAF7F0"/>
          </g>
        </g>

        <text x="125" y="270" text-anchor="middle" font-family="Helvetica, Arial, sans-serif" font-size="14" font-weight="600" fill="#0F1B3D">Sahibiyle iletişime geç</text>
      </g>

      <g transform="translate(60, 100)">
        <path d="M 0 40 L 0 0 L 40 0" stroke="#D4F36A" stroke-width="6" fill="none"/>
        <path d="M 300 0 L 340 0 L 340 40" stroke="#D4F36A" stroke-width="6" fill="none"/>
        <path d="M 340 300 L 340 340 L 300 340" stroke="#D4F36A" stroke-width="6" fill="none"/>
        <path d="M 40 340 L 0 340 L 0 300" stroke="#D4F36A" stroke-width="6" fill="none"/>

        <line x1="10" y1="170" x2="330" y2="170" stroke="#D4F36A" stroke-width="3" opacity="0.7"/>
      </g>
    </g>

    <g transform="translate(70, 940)">
      <rect x="0" y="0" width="460" height="180" rx="24" fill="#D4F36A"/>
      <text x="30" y="50" font-family="Helvetica, Arial, sans-serif" font-size="22" font-weight="700" fill="#0F1B3D">Sticker algılandı</text>
      <text x="30" y="90" font-family="Helvetica, Arial, sans-serif" font-size="18" fill="#0F1B3D">Aracım — Ön cam sticker</text>
      <g transform="translate(30, 110)">
        <rect x="0" y="0" width="200" height="50" rx="12" fill="#0F1B3D"/>
        <text x="100" y="34" text-anchor="middle" font-family="Helvetica, Arial, sans-serif" font-size="18" font-weight="700" fill="#D4F36A">Mesaj Gönder</text>
      </g>
    </g>
  </g>

  <text x="540" y="1720" text-anchor="middle" font-family="Helvetica, Arial, sans-serif" font-size="42" font-weight="700" fill="#FFFFFF">1 saniyede bağlantı</text>
  <text x="540" y="1780" text-anchor="middle" font-family="Helvetica, Arial, sans-serif" font-size="30" font-weight="500" fill="#B8C0D0">Kamera aç · Tara · Mesajlaş</text>
</svg>
