<svg xmlns="http://www.w3.org/2000/svg" viewBox="0 0 1024 500" width="1024" height="500">
  <defs>
    <linearGradient id="bg" x1="0" y1="0" x2="1024" y2="500" gradientUnits="userSpaceOnUse">
      <stop offset="0" stop-color="#0F1B3D"/>
      <stop offset="0.5" stop-color="#1A2F5C"/>
      <stop offset="1" stop-color="#0F1B3D"/>
    </linearGradient>
    <radialGradient id="glow1" cx="200" cy="100" r="300" gradientUnits="userSpaceOnUse">
      <stop offset="0" stop-color="#F5B83C" stop-opacity="0.15"/>
      <stop offset="1" stop-color="#F5B83C" stop-opacity="0"/>
    </radialGradient>
    <radialGradient id="glow2" cx="900" cy="400" r="300" gradientUnits="userSpaceOnUse">
      <stop offset="0" stop-color="#D4F36A" stop-opacity="0.15"/>
      <stop offset="1" stop-color="#D4F36A" stop-opacity="0"/>
    </radialGradient>
  </defs>

  <rect width="1024" height="500" fill="url(#bg)"/>
  <rect width="1024" height="500" fill="url(#glow1)"/>
  <rect width="1024" height="500" fill="url(#glow2)"/>

  <g transform="translate(60, 100)">
    <rect x="0" y="0" width="88" height="88" rx="20" fill="#F5B83C"/>
    <text x="44" y="70" text-anchor="middle" font-family="Helvetica, Arial, sans-serif" font-size="64" font-weight="700" fill="#0F1B3D">T</text>
    <text x="0" y="180" font-family="Helvetica, Arial, sans-serif" font-size="72" font-weight="800" fill="#FFFFFF">Tagora</text>
    <text x="0" y="240" font-family="Helvetica, Arial, sans-serif" font-size="30" font-weight="600" fill="#D4F36A">Anonim iletişim için</text>
    <text x="0" y="284" font-family="Helvetica, Arial, sans-serif" font-size="30" font-weight="600" fill="#D4F36A">akıllı QR sticker</text>
    <text x="0" y="340" font-family="Helvetica, Arial, sans-serif" font-size="18" font-weight="500" fill="#B8C0D0">Kimliğin gizli · Mesajın güvenli · KVKK uyumlu</text>
  </g>

  <g transform="translate(680, 40)">
    <rect x="10" y="20" width="260" height="440" rx="40" fill="#000000" opacity="0.3"/>
    <rect x="0" y="0" width="260" height="440" rx="40" fill="#1E1E2E"/>
    <rect x="0" y="0" width="260" height="440" rx="40" fill="none" stroke="#2A2A3E" stroke-width="2"/>
    <rect x="10" y="12" width="240" height="416" rx="32" fill="#0F1B3D"/>
    <rect x="105" y="12" width="50" height="20" rx="10" fill="#000000"/>

    <g transform="translate(50, 60)">
      <rect x="0" y="0" width="160" height="160" rx="12" fill="#FFFFFF"/>
      <g transform="translate(20, 20)">
        <rect x="0" y="0" width="30" height="30" fill="#0F1B3D"/>
        <rect x="5" y="5" width="20" height="20" fill="#FFFFFF"/>
        <rect x="10" y="10" width="10" height="10" fill="#0F1B3D"/>
        <rect x="90" y="0" width="30" height="30" fill="#0F1B3D"/>
        <rect x="95" y="5" width="20" height="20" fill="#FFFFFF"/>
        <rect x="100" y="10" width="10" height="10" fill="#0F1B3D"/>
        <rect x="0" y="90" width="30" height="30" fill="#0F1B3D"/>
        <rect x="5" y="95" width="20" height="20" fill="#FFFFFF"/>
        <rect x="10" y="100" width="10" height="10" fill="#0F1B3D"/>
        <rect x="40" y="0" width="8" height="8" fill="#0F1B3D"/>
        <rect x="56" y="0" width="8" height="8" fill="#0F1B3D"/>
        <rect x="72" y="0" width="8" height="8" fill="#0F1B3D"/>
        <rect x="40" y="16" width="8" height="8" fill="#0F1B3D"/>
        <rect x="64" y="16" width="8" height="8" fill="#0F1B3D"/>
        <rect x="80" y="16" width="8" height="8" fill="#0F1B3D"/>
        <rect x="48" y="32" width="8" height="8" fill="#0F1B3D"/>
        <rect x="72" y="32" width="8" height="8" fill="#0F1B3D"/>
        <rect x="0" y="40" width="8" height="8" fill="#0F1B3D"/>
        <rect x="16" y="40" width="8" height="8" fill="#0F1B3D"/>
        <rect x="32" y="40" width="8" height="8" fill="#0F1B3D"/>
        <rect x="48" y="40" width="8" height="8" fill="#0F1B3D"/>
        <rect x="80" y="40" width="8" height="8" fill="#0F1B3D"/>
        <rect x="96" y="40" width="8" height="8" fill="#0F1B3D"/>
        <rect x="112" y="40" width="8" height="8" fill="#0F1B3D"/>
        <rect x="8" y="56" width="8" height="8" fill="#0F1B3D"/>
        <rect x="24" y="56" width="8" height="8" fill="#0F1B3D"/>
        <rect x="56" y="56" width="8" height="8" fill="#0F1B3D"/>
        <rect x="88" y="56" width="8" height="8" fill="#0F1B3D"/>
        <rect x="104" y="56" width="8" height="8" fill="#0F1B3D"/>
        <rect x="40" y="72" width="8" height="8" fill="#0F1B3D"/>
        <rect x="72" y="72" width="8" height="8" fill="#0F1B3D"/>
        <rect x="96" y="72" width="8" height="8" fill="#0F1B3D"/>
        <rect x="40" y="88" width="8" height="8" fill="#0F1B3D"/>
        <rect x="72" y="88" width="8" height="8" fill="#0F1B3D"/>
        <rect x="40" y="104" width="8" height="8" fill="#0F1B3D"/>
        <rect x="56" y="104" width="8" height="8" fill="#0F1B3D"/>
        <rect x="80" y="104" width="8" height="8" fill="#0F1B3D"/>
        <rect x="96" y="104" width="8" height="8" fill="#0F1B3D"/>
        <rect x="112" y="104" width="8" height="8" fill="#0F1B3D"/>
      </g>
    </g>

    <g transform="translate(30, 260)">
      <rect x="0" y="0" width="200" height="60" rx="12" fill="#D4F36A"/>
      <text x="14" y="24" font-family="Helvetica, Arial, sans-serif" font-size="13" font-weight="700" fill="#0F1B3D">Yeni mesaj</text>
      <text x="14" y="46" font-family="Helvetica, Arial, sans-serif" font-size="12" fill="#0F1B3D">Peluşunu buldum, iletişime geç.</text>
    </g>

    <g transform="translate(30, 335)">
      <rect x="0" y="0" width="200" height="50" rx="12" fill="#F5B83C"/>
      <text x="14" y="22" font-family="Helvetica, Arial, sans-serif" font-size="13" font-weight="700" fill="#0F1B3D">Şifreli</text>
      <text x="14" y="40" font-family="Helvetica, Arial, sans-serif" font-size="11" fill="#0F1B3D">Kimlik gizli, mesaj güvende</text>
    </g>
  </g>
</svg>
